<svg height="100" viewBox="0 0 100 100" width="100" xmlns="http://www.w3.org/2000/svg"><path d="m53.5 97.5c-7.225 0-14.025-3.188-18.65-8.638l-15.71-.873c-2.267-.125-4.267-1.392-5.351-3.386-1.084-1.989-1.06-4.357.067-6.329l.066-.116.257-2.743c-2.657-.886-6.179-1.113-6.179-3.915 0-2.617 2.181-5.002 4.523-7.135-3.487-2.732-3.339-5.54-3.601-5.635-2.213-.587-6.022-.229-6.657-2.427-.655-2.285-.026-4.733 1.64-6.399 4.974-4.974 10.061-7.85 16.723-8.4-3.903-5.051-7.859-9.62-7.93-9.672-1.906-1.363-3.927-2.737-3.652-5.087.274-2.349 1.805-4.365 3.993-5.261 5.221-2.135 10.244-3.217 14.932-3.217 3.747 0 6.989.667 9.768 1.707-.227-.864-.395-1.389-.416-1.457-.779-2.338-.12-4.991 1.693-6.719 1.209-1.157 2.804-1.797 4.485-1.797.804 0 1.591.147 2.341.437.6.23 11.384 16.586 19.093 21.108 2.13.921 4.672 2.317 6.967 4.365 2.61-1.078 6.088-1.91 10.6-1.91 2.638 0 1.759 2.62 2.77 5.056.291.703 3.687.389 3.725 1.119 2.267.539.152 4.05.792 6.364.299 1.076 4.284.411 4.038 1.45l.482.061c2.518.315 4.636 2.083 5.395 4.504.762 2.412.036 5.074-1.85 6.774l-4.127 3.714 1.673 1.257c1.714 1.287 2.683 3.331 2.595 5.471-.094 2.152-1.234 4.107-3.052 5.243l-2.283 1.426c.476 1.433.451 3.017-.114 4.447-.842 2.123-2.68 3.621-4.919 4.014l-14.33 2.529c-4.579 6.265-11.962 10.07-19.797 10.07z" opacity=".35"/><path d="m51.5 95.5c-7.225 0-14.025-3.188-18.65-8.638l-15.71-.873c-2.267-.125-4.267-1.392-5.351-3.386-1.084-1.989-1.06-4.357.067-6.329l.066-.116-1.479-.493c-2.657-.885-4.443-3.363-4.443-6.165 0-2.617 2.181-5.002 4.523-7.135-3.487-2.732-5.401-3.482-5.663-3.577-2.213-.587-3.96-2.287-4.595-4.485-.655-2.285-.026-4.733 1.64-6.399 4.974-4.974 10.061-7.85 16.723-8.4-3.903-5.051-8.855-8.679-8.927-8.73-1.906-1.363-2.931-3.678-2.655-6.028.274-2.349 1.805-4.365 3.993-5.261 5.221-2.135 10.244-3.217 14.932-3.217 3.747 0 6.989.667 9.768 1.707-.227-.864-.395-1.389-.416-1.457-.779-2.338-.12-4.991 1.693-6.719 1.209-1.157 2.804-1.797 4.485-1.797.804 0 1.591.147 2.341.437.6.23 14.236 5.634 19.093 21.108 2.13.921 4.672 2.317 6.967 4.365 2.61-1.078 6.088-1.91 10.6-1.91 2.638 0 4.994 1.574 6.005 4.011.291.703.452 1.435.49 2.165 2.267.539 4.13 2.278 4.77 4.592.299 1.076.306 2.183.06 3.223l.482.061c2.518.315 4.636 2.083 5.395 4.504.762 2.412.036 5.074-1.85 6.774l-4.127 3.714 1.673 1.254c1.714 1.287 2.683 3.331 2.595 5.471-.094 2.152-1.234 4.107-3.052 5.243l-2.283 1.426c.476 1.433.451 3.017-.114 4.447-.842 2.123-2.68 3.621-4.919 4.014l-14.33 2.529c-4.579 6.265-11.962 10.07-19.797 10.07z" fill="#f2f2f2"/><path d="m81.5 61.5 10-9-16-2 10-6h-11l6-6c-9 0-12 4-12 4-3-6-11-8-11-8-3-15-16-20-16-20s3 9 2 18c0 0-8-16-30-7 0 0 14 10 16 22 0 0-12-6-23 5 0 0 4 1 14 11 0 0-8 3-8 6l9 3-4 7 18 1 .718-.022c3.175 5.109 8.823 8.522 15.282 8.522 6.864 0 12.828-3.844 15.864-9.496l.136-.004 17-3-3-4 8-5z" fill="#707cc0"/><path d="m42.5 49.5s0 7 2 12c0 0 5.5-7.5 13.5-11.5l-2 12s4-2 10-7l-.393 13.303s5.326-4.303 10.393-4.303c3 0 2 13-9 14l-3 7-11.775 4.202-7.225-2.202-8.782-6.522.586-1.388c-10.366-.304-13.804-15.09-9.804-15.09s10.225 3.764 10.225 3.764-4.225-12.764 5.275-18.264z" fill="#ffe8d9"/><path d="m36.348 62.847 11.326 6.973s-.303 4.719-4.989 4.517c-6.129-.265-6.337-11.49-6.337-11.49z" fill="#fff"/><path d="m36.854 62.253 11.224 6.472" fill="none" stroke="#40396e" stroke-linecap="round" stroke-miterlimit="10" stroke-width="3"/><ellipse cx="43.5" cy="69.5" fill="#40396e" rx="1.5" ry="2.5"/><path d="m65.651 62.847-11.325 6.973s.303 4.719 4.989 4.517c6.129-.265 6.336-11.49 6.336-11.49z" fill="#fff"/><path d="m65.146 62.253-11.225 6.472" fill="none" stroke="#40396e" stroke-linecap="round" stroke-miterlimit="10" stroke-width="3"/><ellipse cx="58.5" cy="69.5" fill="#40396e" rx="1.5" ry="2.5"/><path d="m54.328 79.328c-.724.724-1.724 1.172-2.828 1.172-1.105 0-2.105-.448-2.828-1.172" fill="none" stroke="#40396e" stroke-linecap="round" stroke-miterlimit="10" stroke-width="3"/><g fill="#d47f56" opacity=".35"><path d="m76 64c-1.802 0-3.632.547-5.248 1.249-.369 5.972-4.892 13.841-4.892 13.841l.711-.088.429-1.002c11-1 12-14 9-14z"/><path d="m27 64c-3.738 0-.978 12.91 7.858 14.849l1.945.241s-4.569-7.948-4.897-13.931c-1.656-.647-3.432-1.159-4.906-1.159z"/></g><path d="m81.5 61.5 10-9-16-2 10-6h-11l6-6c-9 0-12 4-12 4-3-6-11-8-11-8-3-15-16-20-16-20s3 9 2 18c0 0-8-16-30-7 0 0 14 10 16 22 0 0-12-6-23 5 0 0 4 1 14 11 0 0-8 3-8 6l9 3-4 7 18 1 .718-.022c3.175 5.109 8.823 8.522 15.282 8.522 6.864 0 12.828-3.844 15.864-9.496l.136-.004 17-3-3-4 8-5z" style="fill:none;stroke:#40396e;stroke-linecap:round;stroke-linejoin:round;stroke-miterlimit:10;stroke-width:3"/></svg>